<svg id="background" xmlns="http://www.w3.org/2000/svg" xmlns:xlink="http://www.w3.org/1999/xlink" viewBox="0 0 677.19 638.99"><defs><style>.cls-1{fill:url(#radial-gradient);}.cls-2{fill:url(#radial-gradient-2);}.cls-3{mask:url(#mask);}.cls-4{fill:#a8a7a8;}.cls-5,.cls-6{fill:#333;}.cls-6{stroke:#fff;stroke-miterlimit:282;stroke-width:5.7px;}.cls-7{filter:url(#luminosity-noclip);}</style><radialGradient id="radial-gradient" cx="246.78" cy="666.14" r="27.89" gradientTransform="translate(-1704.52 4.18) scale(8.42 1.01)" gradientUnits="userSpaceOnUse"><stop offset="0" stop-color="#fff"/><stop offset="0.12" stop-color="#c7c7c7"/><stop offset="0.24" stop-color="#939393"/><stop offset="0.37" stop-color="#666"/><stop offset="0.5" stop-color="#414141"/><stop offset="0.63" stop-color="#252525"/><stop offset="0.75" stop-color="#101010"/><stop offset="0.88" stop-color="#040404"/><stop offset="1"/></radialGradient><radialGradient id="radial-gradient-2" cx="375.24" cy="465.59" r="459.66" gradientTransform="translate(-11.27 -158.16) scale(0.93 1.03)" gradientUnits="userSpaceOnUse"><stop offset="0" stop-color="#fff"/><stop offset="0.51" stop-color="#fdfdfd"/><stop offset="0.7" stop-color="#f6f6f6"/><stop offset="0.83" stop-color="#ebebeb"/><stop offset="0.94" stop-color="#dadada"/><stop offset="1" stop-color="#ccc"/></radialGradient><filter id="luminosity-noclip" x="138.89" y="647.46" width="469.77" height="56.23" filterUnits="userSpaceOnUse" color-interpolation-filters="sRGB"><feFlood flood-color="#fff" result="bg"/><feBlend in="SourceGraphic" in2="bg"/></filter><mask id="mask" x="106.61" y="510.35" width="469.77" height="56.23" maskUnits="userSpaceOnUse"><g class="cls-7"><g transform="translate(-32.28 -137.11)"><path class="cls-1" d="M608.66,675.58c0,15.52-105.15,28.11-234.88,28.11S138.89,691.1,138.89,675.58s105.16-28.12,234.89-28.12S608.66,660.05,608.66,675.58Z"/></g></g></mask></defs><title>black and white nuclear</title><rect class="cls-2" width="677.19" height="638.99"/><g class="cls-3"><path class="cls-4" d="M593,675.27c0,14.53-98.37,26.31-219.74,26.31S153.51,689.8,153.51,675.27,251.9,649,373.26,649,593,660.75,593,675.27Z" transform="translate(-32.28 -137.11)"/></g><path class="cls-5" d="M519.66,384.1c-11.87-20.51-85.95,0-165.51,45.84S219.75,529.53,231.62,550s85.95,0,165.51-45.84,134.4-99.59,122.53-120.06ZM497,396.68c10.49,18.18-40.13,67-113.13,109s-140.66,61.39-151.18,43.24S272.87,482,345.87,440,486.53,378.53,497,396.68Z" transform="translate(-32.28 -137.11)"/><path class="cls-5" d="M226.85,384.1c11.84-20.48,86,0,165.48,45.84S526.76,529.53,514.9,550,429,550,349.39,504.16,215,404.61,226.85,384.1Zm22.62,12.61c-10.51,18.15,40.14,66.93,113.14,109s140.65,61.4,151.17,43.21S473.61,482,400.64,440,260,378.53,249.47,396.71Z" transform="translate(-32.28 -137.11)"/><path class="cls-5" d="M369.5,633c23.71,0,42.95-74.28,42.95-165.94S393.21,301.14,369.5,301.14s-42.94,74.29-42.94,165.91S345.8,633,369.5,633Zm.38-25.84c-21,0-38-68.18-38-152.24s17-152.25,38-152.25,38,68.15,38,152.25-17,152.24-38,152.24Z" transform="translate(-32.28 -137.11)"/><path class="cls-5" d="M399.49,469.11a27.95,27.95,0,1,1-28-27.9,27.91,27.91,0,0,1,28,27.9Z" transform="translate(-32.28 -137.11)"/><path class="cls-6" d="M357.91,349.42a15,15,0,1,1-15-15,15,15,0,0,1,15,15Z" transform="translate(-32.28 -137.11)"/><path class="cls-6" d="M293.16,551.39a15,15,0,1,1-15-14.95,15,15,0,0,1,15,14.95Z" transform="translate(-32.28 -137.11)"/><path class="cls-6" d="M493.56,494.27a15,15,0,1,1-15-15,15,15,0,0,1,15,15Z" transform="translate(-32.28 -137.11)"/></svg>