<svg id="Layer_1" data-name="Layer 1" xmlns="http://www.w3.org/2000/svg" viewBox="0 0 337.95 134.83"><defs><style>.cls-1,.cls-2{fill:#231f20;}.cls-2{fill-rule:evenodd;}</style></defs><title>ENT_LOGO_H_BLACK</title><path class="cls-1" d="M205.75,410.9a48.12,48.12,0,0,1-6.94,5.34H183.34v5.34H163.56v-5.34H148.14a48.12,48.12,0,0,1-6.94-5.34h22.36v5.34h19.78V410.9h22.41Zm9.58-12.4a47.59,47.59,0,0,1-6.41,9.17h-6.33v-5.35H183.34v5.35H163.56v-5.35H144.31v5.35H138a47.59,47.59,0,0,1-6.41-9.17h12.69v-5.34h19.25v5.34h19.78v-5.34h19.25v5.34Zm5.52-19.33a47.71,47.71,0,0,1-2.35,12H202.59v-5.34H183.34v5.34H163.56v-5.34H144.31v5.34H128.45a47.71,47.71,0,0,1-2.35-12h18.21v-3.89h19.25v3.89h19.78v-3.89h19.25v3.89ZM126,375.28a47.47,47.47,0,0,1,94.93,0H202.59v-3.76H183.34v3.76H163.56v-3.76H144.31v3.76Z" transform="translate(-126.01 -328.58)"/><path class="cls-1" d="M272.84,403.41c-.4.58-1.38.09-1.87.19.41-3.73,1.11-7.84-1.42-10.9-1.46-1.37-3.33-1.58-5.19-2.08l-14.5-.06-.4.68-5.78,20.87.1.19c5.79-.17,12.84,1.43,16-4.34l1.48-3.52H263l.1.3-5.78,20.76c-.59,0-1.47.19-2-.1.6-2.55,1.5-6.37-.45-8.73-3.23-2.76-8.23-1.71-12.05-1.82l-7.47,26.34.1.39c10.39-.15,24.4,2.07,29.15-9.67a51.56,51.56,0,0,0,1.79-5.39,4.92,4.92,0,0,1,2.35,0l-4.88,17.34-2.84.08-41.66,0a16.84,16.84,0,0,1,.5-2.16c2.06-.77,6.37,1.11,6.78-2.42L240,391.89c.1-.59,0-1.18-.68-1.38-1.76-.3-3.92.18-5.88-.22l.6-2.06c13.82-.13,28.23-.26,42.74,0l-3.89,15.18Z" transform="translate(-126.01 -328.58)"/><path class="cls-1" d="M333,394c-1.19,4.71-2.68,9.31-3.78,13.91l6,.22c-.2.69-.11,2.06-1,2.06l-5.69.07c-2.78,9.5-5.47,19-8,28.6a2.68,2.68,0,0,0,.39,2.45c1.46,1,3.23-.08,4.61-.66,1.18-.68,2.16-1.86,3.34-2.54.49.4,1.17.6,1.27,1.18-3.25,3.23-7.08,6.05-11.79,4.95a5.57,5.57,0,0,1-3.9-2.86c-1.84-4.81.82-9.21,1.63-13.72l4.38-15.77a1.27,1.27,0,0,0-.88-1.57,38.31,38.31,0,0,0-4.7-.12,8.59,8.59,0,0,1,.5-2.05l6.07-.17c1.4-3.92,2.39-8.13,3.69-12.25,2.64-.38,5.49-.66,7.84-1.73Z" transform="translate(-126.01 -328.58)"/><path class="cls-1" d="M308,410.43c1.25,3.73-.53,7.74-1.23,11.37l-5.17,16.64c-.1,1-.4,2,.08,2.85.4.59,1.18.49,1.77.4,1.76-.58,3.05-2.44,4.32-3.61l1.28.89c-1.78,2.64-4.54,5.08-7.67,5.55a7.1,7.1,0,0,1-4.51-.9c-4.59-4.24-.93-10.69.17-15.49,1.49-5.29,3.87-10.28,4.77-15.77,0-.88.2-2-.48-2.65-1.95-1.48-4.41.08-6.27,1a27,27,0,0,0-10.85,13.68l-5.57,19.49c-2.26.19-4.9.08-7.26.07l9-32.61c.2-.49-.39-.89-.88-1.09l-4.61-.12c.3-.58.3-1.46.7-2.05l13,0,.09.29c-.59,2.06-1.19,4.21-1.59,6.27,4.63-5.17,11.21-9.66,18.16-7a6,6,0,0,1,2.74,2.86Z" transform="translate(-126.01 -328.58)"/><path class="cls-1" d="M365.24,410.87c1.26,3.34,0,7-2.2,9.6a11.84,11.84,0,0,1-3.34,2.93l.29.1a52.91,52.91,0,0,0,13.36-7,26.92,26.92,0,0,0,1.49-5.39c-.77-1.47-2.84-.7-4.21-1l.6-2.05q6.18-.12,12.06.05a13,13,0,0,0-.8,3.82c3.92-2,8-4.38,12.66-4.26a48,48,0,0,1-2.29,7.25c-4.11-1.49-8.43.16-11.87,1.91l-.39.78L373.13,444l-7.25,0,6.27-22.82-.1-.2c-9.13,4.48-19.53,7.08-30.21,5.76-1.1,4.7-1.91,10.67,1.7,14.32,2.25,1.87,6,1.59,8.43.53a17.43,17.43,0,0,0,6-4.49l1.36,1.19c-3.84,4.88-9.83,7.5-16.19,6a11.17,11.17,0,0,1-8.21-7c-3.29-9.53.28-19.91,7.86-26.25,5.31-4.88,13.46-6.71,20.11-3.15a6.48,6.48,0,0,1,2.34,3.05Zm-8.91-2.39a7.22,7.22,0,0,0-7.66,2.32,33.1,33.1,0,0,0-6.43,14.29c4.8.22,10.39-.15,14-4a10.58,10.58,0,0,0,2.4-10.09,5,5,0,0,0-2.34-2.56Z" transform="translate(-126.01 -328.58)"/><path class="cls-1" d="M418,408.06l16.76,0,.39.49,6,25.91.1.3.59-.58,12.76-25.25c0-1,1.08-1,1.76-.87l7.65,0c-.3.68-1.48,1.17-2,1.95a41,41,0,0,0-5.92,8.41l-14.82,27.1c-3,5.38-6.42,11.54-12.32,14.26a25.32,25.32,0,0,1-12.75,1.9,42.35,42.35,0,0,1,4.62-1.54c7.26-2.62,12.2-9.85,15.26-16.41l-8.19-31.42a2.85,2.85,0,0,0-1.66-1.86,31.84,31.84,0,0,0-6.17-.13c2.43,3.93,2.4,9.42.62,13.63a16.41,16.41,0,0,1-14.25,9.35,12.9,12.9,0,0,1-6.66-1.4c-2.46.87-6,1.93-6.2,5.17.48,1.77,2.64,1.48,4.21,1.78,5.49.52,11.37-.44,16.36,1.55a7.13,7.13,0,0,1,4.29,5.41,14.48,14.48,0,0,1-7,14.78c-6.29,3.5-14.82,3.56-21.67,1.17-2.94-1-6.26-3.55-6.54-6.89a9.68,9.68,0,0,1,3.27-8.42,13.09,13.09,0,0,1,4.13-2.53c-1-1.37-2.15-2.75-1.84-4.71,0-3.14,2.47-5.48,5.12-6.94l3.83-1.56a13.06,13.06,0,0,1-3.56-13.25c1.49-5.78,7.2-10.36,12.89-11.22a15.76,15.76,0,0,1,11,1.81Zm-7.94,0c-4.71.37-6.89,5.36-8.18,9.08-1.19,3.92-2.88,9.5-.05,12.95a5.07,5.07,0,0,0,4.11,1.19c4.81-.76,6.39-5.95,7.69-9.77.9-3.82,2.58-8.42.25-12.06a5.42,5.42,0,0,0-3.82-1.39Zm-12.72,37.89c-2.15.09-5-1.79-6.47.86-2.27,2.54-2.58,6.36-1.61,9.5,1.07,2.65,3.61,3.94,6.16,4.44,6.46.81,14.3,1.14,18-5.12.8-2.05,1.4-4.7-.06-6.67a6.71,6.71,0,0,0-4.21-2.27l-11.86-.74Z" transform="translate(-126.01 -328.58)"/><path class="cls-2" d="M457.06,451.55h.67c.54,0,1,.24,1,.95a1.05,1.05,0,0,1-1.12,1.08h-.59v-2Zm-1.63,5.67h1.63v-2.64h.76l1.39,2.74,1.73-.24-1.69-2.84a2.08,2.08,0,0,0,1.19-1.93c0-1.12-.9-1.76-2.36-1.76h-2.65v6.67Zm2.36,3.13a6.24,6.24,0,1,0-6.12-6.25,6.19,6.19,0,0,0,6.12,6.25Zm0-1a5.22,5.22,0,1,1,5-5.23,5.17,5.17,0,0,1-5,5.23Z" transform="translate(-126.01 -328.58)"/></svg>